<svg
        xmlns="http://www.w3.org/2000/svg"
        xmlns:xlink="http://www.w3.org/1999/xlink"
        width="866px" height="439px">
    <path fill-rule="evenodd"  fill="rgb(255, 255, 255)"
          d="M862.893,144.217 C861.170,144.217 859.774,142.820 859.774,141.096 C859.774,139.373 861.170,137.976 862.893,137.976 C864.616,137.976 866.012,139.373 866.012,141.096 C866.012,142.820 864.616,144.217 862.893,144.217 ZM862.893,98.452 C861.170,98.452 859.774,97.055 859.774,95.332 C859.774,93.608 861.170,92.211 862.893,92.211 C864.616,92.211 866.012,93.608 866.012,95.332 C866.012,97.055 864.616,98.452 862.893,98.452 ZM862.893,52.687 C861.170,52.687 859.774,51.290 859.774,49.566 C859.774,47.843 861.170,46.446 862.893,46.446 C864.616,46.446 866.012,47.843 866.012,49.566 C866.012,51.290 864.616,52.687 862.893,52.687 ZM862.893,6.922 C861.170,6.922 859.774,5.525 859.774,3.802 C859.774,2.079 861.170,0.681 862.893,0.681 C864.616,0.681 866.012,2.079 866.012,3.802 C866.012,5.525 864.616,6.922 862.893,6.922 ZM817.147,189.982 C815.425,189.982 814.028,188.585 814.028,186.862 C814.028,185.138 815.425,183.741 817.147,183.741 C818.870,183.741 820.266,185.138 820.266,186.862 C820.266,188.585 818.870,189.982 817.147,189.982 ZM817.147,144.217 C815.425,144.217 814.028,142.820 814.028,141.096 C814.028,139.373 815.425,137.976 817.147,137.976 C818.870,137.976 820.266,139.373 820.266,141.096 C820.266,142.820 818.870,144.217 817.147,144.217 ZM817.147,98.452 C815.425,98.452 814.028,97.055 814.028,95.332 C814.028,93.608 815.425,92.211 817.147,92.211 C818.870,92.211 820.266,93.608 820.266,95.332 C820.266,97.055 818.870,98.452 817.147,98.452 ZM817.147,52.687 C815.425,52.687 814.028,51.290 814.028,49.566 C814.028,47.843 815.425,46.446 817.147,46.446 C818.870,46.446 820.266,47.843 820.266,49.566 C820.266,51.290 818.870,52.687 817.147,52.687 ZM817.147,6.922 C815.425,6.922 814.028,5.525 814.028,3.802 C814.028,2.078 815.425,0.681 817.147,0.681 C818.870,0.681 820.266,2.078 820.266,3.802 C820.266,5.525 818.870,6.922 817.147,6.922 ZM771.403,189.982 C769.680,189.982 768.284,188.585 768.284,186.862 C768.284,185.138 769.680,183.741 771.403,183.741 C773.125,183.741 774.522,185.138 774.522,186.862 C774.522,188.585 773.125,189.982 771.403,189.982 ZM771.403,144.217 C769.680,144.217 768.284,142.820 768.284,141.096 C768.284,139.373 769.680,137.976 771.403,137.976 C773.125,137.976 774.522,139.373 774.522,141.096 C774.522,142.820 773.125,144.217 771.403,144.217 ZM771.403,98.452 C769.680,98.452 768.284,97.055 768.284,95.332 C768.284,93.608 769.680,92.211 771.403,92.211 C773.125,92.211 774.522,93.608 774.522,95.332 C774.522,97.055 773.125,98.452 771.403,98.452 ZM771.403,52.687 C769.680,52.687 768.284,51.290 768.284,49.566 C768.284,47.843 769.680,46.446 771.403,46.446 C773.125,46.446 774.522,47.843 774.522,49.566 C774.522,51.290 773.125,52.687 771.403,52.687 ZM771.403,6.922 C769.680,6.922 768.284,5.525 768.284,3.802 C768.284,2.078 769.680,0.681 771.403,0.681 C773.125,0.681 774.522,2.078 774.522,3.802 C774.522,5.525 773.125,6.922 771.403,6.922 ZM725.658,189.982 C723.936,189.982 722.539,188.585 722.539,186.862 C722.539,185.138 723.936,183.741 725.658,183.741 C727.381,183.741 728.777,185.138 728.777,186.862 C728.777,188.585 727.381,189.982 725.658,189.982 ZM725.658,144.217 C723.936,144.217 722.539,142.820 722.539,141.096 C722.539,139.373 723.936,137.976 725.658,137.976 C727.381,137.976 728.777,139.373 728.777,141.096 C728.777,142.820 727.381,144.217 725.658,144.217 ZM725.658,98.452 C723.936,98.452 722.539,97.055 722.539,95.332 C722.539,93.608 723.936,92.211 725.658,92.211 C727.381,92.211 728.777,93.608 728.777,95.332 C728.777,97.055 727.381,98.452 725.658,98.452 ZM725.658,52.687 C723.936,52.687 722.539,51.290 722.539,49.566 C722.539,47.843 723.936,46.446 725.658,46.446 C727.381,46.446 728.777,47.843 728.777,49.566 C728.777,51.290 727.381,52.687 725.658,52.687 ZM725.658,6.922 C723.936,6.922 722.539,5.525 722.539,3.802 C722.539,2.078 723.936,0.681 725.658,0.681 C727.381,0.681 728.777,2.078 728.777,3.802 C728.777,5.525 727.381,6.922 725.658,6.922 ZM679.914,98.452 C678.191,98.452 676.795,97.055 676.795,95.332 C676.795,93.608 678.191,92.211 679.914,92.211 C681.636,92.211 683.033,93.608 683.033,95.332 C683.033,97.055 681.636,98.452 679.914,98.452 ZM679.914,52.687 C678.191,52.687 676.795,51.290 676.795,49.566 C676.795,47.843 678.191,46.446 679.914,46.446 C681.636,46.446 683.033,47.843 683.033,49.566 C683.033,51.290 681.636,52.687 679.914,52.687 ZM679.914,6.922 C678.191,6.922 676.795,5.525 676.795,3.802 C676.795,2.078 678.191,0.681 679.914,0.681 C681.636,0.681 683.032,2.078 683.032,3.802 C683.032,5.525 681.636,6.922 679.914,6.922 ZM634.169,189.982 C632.446,189.982 631.050,188.585 631.050,186.862 C631.050,185.138 632.446,183.741 634.169,183.741 C635.891,183.741 637.288,185.138 637.288,186.862 C637.288,188.585 635.891,189.982 634.169,189.982 ZM634.169,144.217 C632.446,144.217 631.050,142.820 631.050,141.096 C631.050,139.373 632.446,137.976 634.169,137.976 C635.891,137.976 637.288,139.373 637.288,141.096 C637.288,142.820 635.891,144.217 634.169,144.217 ZM634.169,98.452 C632.446,98.452 631.050,97.055 631.050,95.332 C631.050,93.608 632.446,92.211 634.169,92.211 C635.891,92.211 637.288,93.608 637.288,95.332 C637.288,97.055 635.891,98.452 634.169,98.452 ZM634.169,52.687 C632.446,52.687 631.050,51.290 631.050,49.566 C631.050,47.843 632.446,46.446 634.169,46.446 C635.891,46.446 637.288,47.843 637.288,49.566 C637.288,51.290 635.891,52.687 634.169,52.687 ZM634.169,6.922 C632.446,6.922 631.050,5.525 631.050,3.802 C631.050,2.078 632.446,0.681 634.169,0.681 C635.891,0.681 637.288,2.078 637.288,3.802 C637.288,5.525 635.891,6.922 634.169,6.922 ZM588.423,98.452 C586.701,98.452 585.304,97.055 585.304,95.332 C585.304,93.608 586.701,92.211 588.423,92.211 C590.146,92.211 591.542,93.608 591.542,95.332 C591.542,97.055 590.146,98.452 588.423,98.452 ZM588.423,52.687 C586.701,52.687 585.304,51.290 585.304,49.566 C585.304,47.843 586.701,46.446 588.423,46.446 C590.146,46.446 591.542,47.843 591.542,49.566 C591.542,51.290 590.146,52.687 588.423,52.687 ZM588.423,6.922 C586.701,6.922 585.304,5.525 585.304,3.802 C585.304,2.078 586.701,0.681 588.423,0.681 C590.146,0.681 591.542,2.078 591.542,3.802 C591.542,5.525 590.146,6.922 588.423,6.922 ZM542.679,189.982 C540.956,189.982 539.560,188.585 539.560,186.862 C539.560,185.138 540.956,183.741 542.679,183.741 C544.401,183.741 545.798,185.138 545.798,186.862 C545.798,188.585 544.401,189.982 542.679,189.982 ZM542.679,144.217 C540.956,144.217 539.560,142.820 539.560,141.096 C539.560,139.373 540.956,137.976 542.679,137.976 C544.401,137.976 545.798,139.373 545.798,141.096 C545.798,142.820 544.401,144.217 542.679,144.217 ZM542.679,98.452 C540.956,98.452 539.560,97.055 539.560,95.332 C539.560,93.608 540.956,92.211 542.679,92.211 C544.401,92.211 545.798,93.608 545.798,95.332 C545.798,97.055 544.401,98.452 542.679,98.452 ZM542.679,52.687 C540.956,52.687 539.560,51.290 539.560,49.566 C539.560,47.843 540.956,46.446 542.679,46.446 C544.401,46.446 545.798,47.843 545.798,49.566 C545.798,51.290 544.401,52.687 542.679,52.687 ZM542.679,6.922 C540.956,6.922 539.560,5.525 539.560,3.802 C539.560,2.078 540.956,0.681 542.679,0.681 C544.401,0.681 545.798,2.078 545.798,3.802 C545.798,5.525 544.401,6.922 542.679,6.922 ZM496.934,189.982 C495.211,189.982 493.815,188.585 493.815,186.862 C493.815,185.138 495.211,183.741 496.934,183.741 C498.657,183.741 500.053,185.138 500.053,186.862 C500.053,188.585 498.657,189.982 496.934,189.982 ZM496.934,144.217 C495.211,144.217 493.815,142.820 493.815,141.096 C493.815,139.373 495.211,137.976 496.934,137.976 C498.657,137.976 500.053,139.373 500.053,141.096 C500.053,142.820 498.657,144.217 496.934,144.217 ZM496.934,98.452 C495.211,98.452 493.815,97.055 493.815,95.332 C493.815,93.608 495.211,92.211 496.934,92.211 C498.657,92.211 500.053,93.608 500.053,95.332 C500.053,97.055 498.657,98.452 496.934,98.452 ZM496.934,52.687 C495.211,52.687 493.815,51.290 493.815,49.566 C493.815,47.843 495.211,46.446 496.934,46.446 C498.657,46.446 500.053,47.843 500.053,49.566 C500.053,51.290 498.657,52.687 496.934,52.687 ZM496.934,6.922 C495.211,6.922 493.815,5.525 493.815,3.802 C493.815,2.078 495.211,0.681 496.934,0.681 C498.657,0.681 500.053,2.078 500.053,3.802 C500.053,5.525 498.657,6.922 496.934,6.922 ZM451.189,189.982 C449.467,189.982 448.070,188.585 448.070,186.862 C448.070,185.138 449.467,183.741 451.189,183.741 C452.912,183.741 454.308,185.138 454.308,186.862 C454.308,188.585 452.912,189.982 451.189,189.982 ZM451.189,144.217 C449.467,144.217 448.070,142.820 448.070,141.096 C448.070,139.373 449.467,137.976 451.189,137.976 C452.912,137.976 454.308,139.373 454.308,141.096 C454.308,142.820 452.912,144.217 451.189,144.217 ZM451.189,98.452 C449.467,98.452 448.070,97.055 448.070,95.332 C448.070,93.608 449.467,92.211 451.189,92.211 C452.912,92.211 454.308,93.608 454.308,95.332 C454.308,97.055 452.912,98.452 451.189,98.452 ZM451.189,52.687 C449.467,52.687 448.070,51.290 448.070,49.566 C448.070,47.843 449.467,46.446 451.189,46.446 C452.912,46.446 454.308,47.843 454.308,49.566 C454.308,51.290 452.912,52.687 451.189,52.687 ZM451.189,6.922 C449.467,6.922 448.070,5.525 448.070,3.802 C448.070,2.078 449.467,0.681 451.189,0.681 C452.912,0.681 454.308,2.078 454.308,3.802 C454.308,5.525 452.912,6.922 451.189,6.922 ZM414.822,439.000 C413.100,439.000 411.703,437.603 411.703,435.880 C411.703,434.156 413.100,432.759 414.822,432.759 C416.545,432.759 417.941,434.156 417.941,435.880 C417.941,437.603 416.545,439.000 414.822,439.000 ZM414.822,393.235 C413.100,393.235 411.703,391.838 411.703,390.114 C411.703,388.391 413.100,386.994 414.822,386.994 C416.545,386.994 417.941,388.391 417.941,390.114 C417.941,391.838 416.545,393.235 414.822,393.235 ZM414.822,347.470 C413.100,347.470 411.703,346.073 411.703,344.350 C411.703,342.626 413.100,341.229 414.822,341.229 C416.545,341.229 417.941,342.626 417.941,344.350 C417.941,346.073 416.545,347.470 414.822,347.470 ZM414.822,301.705 C413.100,301.705 411.703,300.308 411.703,298.585 C411.703,296.861 413.100,295.464 414.822,295.464 C416.545,295.464 417.941,296.861 417.941,298.585 C417.941,300.308 416.545,301.705 414.822,301.705 ZM414.822,255.940 C413.100,255.940 411.703,254.543 411.703,252.820 C411.703,251.097 413.100,249.699 414.822,249.699 C416.545,249.699 417.941,251.097 417.941,252.820 C417.941,254.543 416.545,255.940 414.822,255.940 ZM369.077,439.000 C367.355,439.000 365.959,437.603 365.959,435.880 C365.959,434.156 367.355,432.759 369.077,432.759 C370.800,432.759 372.196,434.156 372.196,435.880 C372.196,437.603 370.800,439.000 369.077,439.000 ZM369.077,393.235 C367.355,393.235 365.959,391.838 365.959,390.114 C365.959,388.391 367.355,386.994 369.077,386.994 C370.800,386.994 372.196,388.391 372.196,390.114 C372.196,391.838 370.800,393.235 369.077,393.235 ZM369.077,347.470 C367.355,347.470 365.959,346.073 365.959,344.350 C365.959,342.626 367.355,341.229 369.077,341.229 C370.800,341.229 372.196,342.626 372.196,344.350 C372.196,346.073 370.800,347.470 369.077,347.470 ZM369.077,301.705 C367.355,301.705 365.959,300.308 365.959,298.585 C365.959,296.861 367.355,295.464 369.077,295.464 C370.800,295.464 372.196,296.861 372.196,298.585 C372.196,300.308 370.800,301.705 369.077,301.705 ZM369.077,255.940 C367.355,255.940 365.959,254.543 365.959,252.820 C365.959,251.097 367.355,249.699 369.077,249.699 C370.800,249.699 372.196,251.097 372.196,252.820 C372.196,254.543 370.800,255.940 369.077,255.940 ZM323.332,393.235 C321.609,393.235 320.213,391.838 320.213,390.114 C320.213,388.391 321.609,386.994 323.332,386.994 C325.054,386.994 326.451,388.391 326.451,390.114 C326.451,391.838 325.054,393.235 323.332,393.235 ZM323.332,347.470 C321.609,347.470 320.213,346.073 320.213,344.350 C320.213,342.626 321.609,341.229 323.332,341.229 C325.054,341.229 326.451,342.626 326.451,344.350 C326.451,346.073 325.054,347.470 323.332,347.470 ZM326.451,298.585 C326.451,300.308 325.054,301.705 323.332,301.705 C321.609,301.705 320.213,300.308 320.213,298.585 C320.213,296.861 321.609,295.464 323.332,295.464 C325.054,295.464 326.451,296.861 326.451,298.585 ZM323.332,255.940 C321.609,255.940 320.213,254.543 320.213,252.820 C320.213,251.097 321.609,249.699 323.332,249.699 C325.054,249.699 326.451,251.097 326.451,252.820 C326.451,254.543 325.054,255.940 323.332,255.940 ZM277.587,439.000 C275.865,439.000 274.468,437.603 274.468,435.880 C274.468,434.156 275.865,432.759 277.587,432.759 C279.310,432.759 280.706,434.156 280.706,435.880 C280.706,437.603 279.310,439.000 277.587,439.000 ZM277.587,393.235 C275.865,393.235 274.468,391.838 274.468,390.114 C274.468,388.391 275.865,386.994 277.587,386.994 C279.310,386.994 280.706,388.391 280.706,390.114 C280.706,391.838 279.310,393.235 277.587,393.235 ZM277.587,347.470 C275.865,347.470 274.468,346.073 274.468,344.350 C274.468,342.626 275.865,341.229 277.587,341.229 C279.310,341.229 280.706,342.626 280.706,344.350 C280.706,346.073 279.310,347.470 277.587,347.470 ZM277.587,301.705 C275.865,301.705 274.468,300.308 274.468,298.585 C274.468,296.861 275.865,295.464 277.587,295.464 C279.310,295.464 280.706,296.861 280.706,298.585 C280.706,300.308 279.310,301.705 277.587,301.705 ZM277.587,255.940 C275.865,255.940 274.468,254.543 274.468,252.820 C274.468,251.097 275.865,249.699 277.587,249.699 C279.310,249.699 280.706,251.097 280.706,252.820 C280.706,254.543 279.310,255.940 277.587,255.940 ZM231.843,439.000 C230.120,439.000 228.724,437.603 228.724,435.880 C228.724,434.156 230.120,432.759 231.843,432.759 C233.565,432.759 234.962,434.156 234.962,435.880 C234.962,437.603 233.565,439.000 231.843,439.000 ZM234.962,390.114 C234.962,391.838 233.565,393.235 231.843,393.235 C230.120,393.235 228.724,391.838 228.724,390.114 C228.724,388.391 230.120,386.994 231.843,386.994 C233.565,386.994 234.962,388.391 234.962,390.114 ZM231.843,347.470 C230.120,347.470 228.724,346.073 228.724,344.350 C228.724,342.626 230.120,341.229 231.843,341.229 C233.565,341.229 234.962,342.626 234.962,344.350 C234.962,346.073 233.565,347.470 231.843,347.470 ZM231.843,301.705 C230.120,301.705 228.724,300.308 228.724,298.585 C228.724,296.861 230.120,295.464 231.843,295.464 C233.565,295.464 234.962,296.861 234.962,298.585 C234.962,300.308 233.565,301.705 231.843,301.705 ZM231.843,255.940 C230.120,255.940 228.724,254.543 228.724,252.820 C228.724,251.097 230.120,249.699 231.843,249.699 C233.565,249.699 234.962,251.097 234.962,252.820 C234.962,254.543 233.565,255.940 231.843,255.940 ZM186.098,439.000 C184.375,439.000 182.979,437.603 182.979,435.880 C182.979,434.156 184.375,432.759 186.098,432.759 C187.821,432.759 189.217,434.156 189.217,435.880 C189.217,437.603 187.821,439.000 186.098,439.000 ZM186.098,393.235 C184.375,393.235 182.979,391.838 182.979,390.114 C182.979,388.391 184.375,386.994 186.098,386.994 C187.821,386.994 189.217,388.391 189.217,390.114 C189.217,391.838 187.821,393.235 186.098,393.235 ZM186.098,347.470 C184.375,347.470 182.979,346.073 182.979,344.350 C182.979,342.626 184.375,341.229 186.098,341.229 C187.821,341.229 189.217,342.626 189.217,344.350 C189.217,346.073 187.821,347.470 186.098,347.470 ZM186.098,301.705 C184.375,301.705 182.979,300.308 182.979,298.585 C182.979,296.861 184.375,295.464 186.098,295.464 C187.821,295.464 189.217,296.861 189.217,298.585 C189.217,300.308 187.821,301.705 186.098,301.705 ZM186.098,255.940 C184.375,255.940 182.979,254.543 182.979,252.820 C182.979,251.097 184.375,249.699 186.098,249.699 C187.821,249.699 189.217,251.097 189.217,252.820 C189.217,254.543 187.821,255.940 186.098,255.940 ZM140.353,439.000 C138.631,439.000 137.234,437.603 137.234,435.880 C137.234,434.156 138.631,432.759 140.353,432.759 C142.076,432.759 143.472,434.156 143.472,435.880 C143.472,437.603 142.076,439.000 140.353,439.000 ZM140.353,393.235 C138.631,393.235 137.234,391.838 137.234,390.114 C137.234,388.391 138.631,386.994 140.353,386.994 C142.076,386.994 143.472,388.391 143.472,390.114 C143.472,391.838 142.076,393.235 140.353,393.235 ZM140.353,347.470 C138.631,347.470 137.234,346.073 137.234,344.350 C137.234,342.626 138.631,341.229 140.353,341.229 C142.076,341.229 143.472,342.626 143.472,344.350 C143.472,346.073 142.076,347.470 140.353,347.470 ZM140.353,301.705 C138.631,301.705 137.234,300.308 137.234,298.585 C137.234,296.861 138.631,295.464 140.353,295.464 C142.076,295.464 143.472,296.861 143.472,298.585 C143.472,300.308 142.076,301.705 140.353,301.705 ZM140.353,255.940 C138.631,255.940 137.234,254.543 137.234,252.820 C137.234,251.097 138.631,249.699 140.353,249.699 C142.076,249.699 143.472,251.097 143.472,252.820 C143.472,254.543 142.076,255.940 140.353,255.940 ZM94.608,439.000 C92.885,439.000 91.489,437.603 91.489,435.880 C91.489,434.156 92.885,432.759 94.608,432.759 C96.330,432.759 97.727,434.156 97.727,435.880 C97.727,437.603 96.330,439.000 94.608,439.000 ZM94.608,393.235 C92.885,393.235 91.489,391.838 91.489,390.114 C91.489,388.391 92.885,386.994 94.608,386.994 C96.330,386.994 97.727,388.391 97.727,390.114 C97.727,391.838 96.330,393.235 94.608,393.235 ZM94.608,347.470 C92.885,347.470 91.489,346.073 91.489,344.350 C91.489,342.626 92.885,341.229 94.608,341.229 C96.330,341.229 97.727,342.626 97.727,344.350 C97.727,346.073 96.330,347.470 94.608,347.470 ZM94.608,301.705 C92.885,301.705 91.489,300.308 91.489,298.585 C91.489,296.861 92.885,295.464 94.608,295.464 C96.330,295.464 97.727,296.861 97.727,298.585 C97.727,300.308 96.330,301.705 94.608,301.705 ZM94.608,255.940 C92.885,255.940 91.489,254.543 91.489,252.820 C91.489,251.097 92.885,249.699 94.608,249.699 C96.330,249.699 97.727,251.097 97.727,252.820 C97.727,254.543 96.330,255.940 94.608,255.940 ZM48.863,439.000 C47.141,439.000 45.744,437.603 45.744,435.880 C45.744,434.156 47.141,432.759 48.863,432.759 C50.586,432.759 51.982,434.156 51.982,435.880 C51.982,437.603 50.586,439.000 48.863,439.000 ZM48.863,393.235 C47.141,393.235 45.744,391.838 45.744,390.114 C45.744,388.391 47.141,386.994 48.863,386.994 C50.586,386.994 51.982,388.391 51.982,390.114 C51.982,391.838 50.586,393.235 48.863,393.235 ZM48.863,347.470 C47.141,347.470 45.744,346.073 45.744,344.350 C45.744,342.626 47.141,341.229 48.863,341.229 C50.586,341.229 51.982,342.626 51.982,344.350 C51.982,346.073 50.586,347.470 48.863,347.470 ZM48.863,301.705 C47.141,301.705 45.744,300.308 45.744,298.585 C45.744,296.861 47.141,295.464 48.863,295.464 C50.586,295.464 51.982,296.861 51.982,298.585 C51.982,300.308 50.586,301.705 48.863,301.705 ZM48.863,255.940 C47.141,255.940 45.744,254.543 45.744,252.820 C45.744,251.097 47.141,249.699 48.863,249.699 C50.586,249.699 51.982,251.097 51.982,252.820 C51.982,254.543 50.586,255.940 48.863,255.940 ZM3.118,439.000 C1.396,439.000 -0.001,437.603 -0.001,435.880 C-0.001,434.156 1.396,432.759 3.118,432.759 C4.841,432.759 6.237,434.156 6.237,435.880 C6.237,437.603 4.841,439.000 3.118,439.000 ZM3.118,393.235 C1.396,393.235 -0.001,391.838 -0.001,390.114 C-0.001,388.391 1.396,386.994 3.118,386.994 C4.841,386.994 6.237,388.391 6.237,390.114 C6.237,391.838 4.841,393.235 3.118,393.235 ZM3.118,347.470 C1.396,347.470 -0.001,346.073 -0.001,344.350 C-0.001,342.626 1.396,341.229 3.118,341.229 C4.841,341.229 6.237,342.626 6.237,344.350 C6.237,346.073 4.841,347.470 3.118,347.470 ZM3.118,301.705 C1.396,301.705 -0.001,300.308 -0.001,298.585 C-0.001,296.861 1.396,295.464 3.118,295.464 C4.841,295.464 6.237,296.861 6.237,298.585 C6.237,300.308 4.841,301.705 3.118,301.705 ZM3.118,255.940 C1.396,255.940 -0.001,254.543 -0.001,252.820 C-0.001,251.097 1.396,249.699 3.118,249.699 C4.841,249.699 6.237,251.097 6.237,252.820 C6.237,254.543 4.841,255.940 3.118,255.940 ZM323.332,432.759 C325.054,432.759 326.451,434.156 326.451,435.880 C326.451,437.603 325.054,439.000 323.332,439.000 C321.609,439.000 320.213,437.603 320.213,435.880 C320.213,434.156 321.609,432.759 323.332,432.759 ZM588.423,137.976 C590.146,137.976 591.542,139.373 591.542,141.096 C591.542,142.820 590.146,144.217 588.423,144.217 C586.701,144.217 585.304,142.820 585.304,141.096 C585.304,139.373 586.701,137.976 588.423,137.976 ZM588.423,183.741 C590.146,183.741 591.542,185.138 591.542,186.862 C591.542,188.585 590.146,189.982 588.423,189.982 C586.701,189.982 585.304,188.585 585.304,186.862 C585.304,185.138 586.701,183.741 588.423,183.741 ZM679.914,137.976 C681.636,137.976 683.032,139.373 683.032,141.096 C683.032,142.820 681.636,144.217 679.914,144.217 C678.191,144.217 676.795,142.820 676.795,141.096 C676.795,139.373 678.191,137.976 679.914,137.976 ZM679.914,183.741 C681.636,183.741 683.032,185.138 683.032,186.862 C683.032,188.585 681.636,189.982 679.914,189.982 C678.191,189.982 676.795,188.585 676.795,186.862 C676.795,185.138 678.191,183.741 679.914,183.741 ZM862.893,183.741 C864.616,183.741 866.012,185.138 866.012,186.862 C866.012,188.585 864.616,189.982 862.893,189.982 C861.171,189.982 859.774,188.585 859.774,186.862 C859.774,185.138 861.171,183.741 862.893,183.741 Z"/>
</svg>