<svg 
 xmlns="http://www.w3.org/2000/svg"
 xmlns:xlink="http://www.w3.org/1999/xlink"
 width="19px" height="18px">
<path fill-rule="evenodd"  fill="rgb(255, 255, 255)"
 d="M18.158,17.919 L15.741,17.919 C15.408,17.919 15.138,17.649 15.138,17.316 L15.138,12.856 C15.138,11.377 15.060,10.421 14.905,9.987 C14.751,9.552 14.499,9.215 14.151,8.974 C13.802,8.733 13.383,8.613 12.893,8.613 C12.265,8.613 11.702,8.785 11.203,9.129 C10.704,9.473 10.362,9.929 10.177,10.496 C9.993,11.063 9.900,12.112 9.900,13.643 L9.900,17.316 C9.900,17.649 9.630,17.919 9.296,17.919 L6.879,17.919 C6.546,17.919 6.275,17.649 6.275,17.316 L6.275,6.754 C6.275,6.420 6.546,6.150 6.879,6.150 L9.038,6.150 C9.372,6.150 9.642,6.420 9.642,6.754 L9.642,7.558 C9.642,7.891 9.805,7.945 10.030,7.699 C11.158,6.460 12.533,5.840 14.157,5.840 C14.957,5.840 15.688,5.984 16.350,6.272 C17.012,6.560 17.513,6.928 17.853,7.375 C18.193,7.822 18.429,8.329 18.562,8.897 C18.696,9.464 18.762,10.277 18.762,11.334 L18.762,17.316 C18.762,17.649 18.492,17.919 18.158,17.919 ZM3.190,17.919 L0.772,17.919 C0.439,17.919 0.168,17.649 0.168,17.316 L0.168,6.754 C0.168,6.420 0.439,6.150 0.772,6.150 L3.190,6.150 C3.523,6.150 3.793,6.420 3.793,6.754 L3.793,17.316 C3.793,17.649 3.523,17.919 3.190,17.919 ZM3.190,4.293 L0.772,4.293 C0.439,4.293 0.168,4.023 0.168,3.689 L0.168,1.543 C0.168,1.210 0.439,0.940 0.772,0.940 L3.190,0.940 C3.523,0.940 3.793,1.210 3.793,1.543 L3.793,3.689 C3.793,4.023 3.523,4.293 3.190,4.293 Z"/>
</svg>