<svg 
 xmlns="http://www.w3.org/2000/svg"
 xmlns:xlink="http://www.w3.org/1999/xlink"
 width="18px" height="15px">
<path fill-rule="evenodd"  fill="rgb(255, 255, 255)"
 d="M5.823,14.916 C12.384,14.916 15.973,9.359 15.973,4.540 C15.973,4.382 15.973,4.225 15.962,4.069 C16.661,3.552 17.263,2.913 17.742,2.181 C17.091,2.476 16.400,2.669 15.693,2.755 C16.438,2.299 16.995,1.582 17.262,0.738 C16.561,1.163 15.795,1.462 14.996,1.623 C13.645,0.154 11.386,0.084 9.949,1.465 C9.022,2.355 8.629,3.683 8.917,4.949 C6.049,4.802 3.376,3.417 1.565,1.138 C0.618,2.805 1.102,4.937 2.669,6.007 C2.102,5.989 1.546,5.833 1.050,5.550 C1.050,5.565 1.050,5.581 1.050,5.597 C1.051,7.332 2.248,8.828 3.912,9.172 C3.387,9.318 2.836,9.339 2.301,9.234 C2.769,10.720 4.108,11.737 5.634,11.767 C4.371,12.782 2.811,13.332 1.204,13.331 C0.920,13.330 0.636,13.313 0.355,13.278 C1.986,14.349 3.884,14.916 5.823,14.913 "/>
</svg>