<svg 
 xmlns="http://www.w3.org/2000/svg"
 xmlns:xlink="http://www.w3.org/1999/xlink"
 width="21px" height="15px">
<path fill-rule="evenodd"  fill="rgb(255, 255, 255)"
 d="M19.902,2.673 C19.674,1.825 19.006,1.156 18.158,0.928 C16.610,0.504 10.417,0.504 10.417,0.504 C10.417,0.504 4.224,0.504 2.676,0.912 C1.844,1.140 1.160,1.825 0.932,2.673 C0.524,4.222 0.524,7.434 0.524,7.434 C0.524,7.434 0.524,10.663 0.932,12.196 C1.160,13.044 1.828,13.712 2.676,13.941 C4.240,14.365 10.417,14.365 10.417,14.365 C10.417,14.365 16.610,14.365 18.158,13.957 C19.006,13.729 19.674,13.060 19.902,12.212 C20.309,10.663 20.309,7.451 20.309,7.451 C20.309,7.451 20.326,4.222 19.902,2.673 ZM8.445,10.402 L8.445,4.466 L13.595,7.434 L8.445,10.402 Z"/>
</svg>